<svg id="visual" viewBox="0 0 960 540" width="960" height="540" xmlns="http://www.w3.org/2000/svg" xmlns:xlink="http://www.w3.org/1999/xlink" version="1.1"><rect x="0" y="0" width="960" height="540" fill="#000000"></rect><defs><linearGradient id="grad1_0" x1="43.8%" y1="100%" x2="100%" y2="0%"><stop offset="14.444444444444446%" stop-color="#F28500" stop-opacity="1"></stop><stop offset="85.55555555555554%" stop-color="#F28500" stop-opacity="1"></stop></linearGradient></defs><defs><linearGradient id="grad1_1" x1="43.8%" y1="100%" x2="100%" y2="0%"><stop offset="14.444444444444446%" stop-color="#F28500" stop-opacity="1"></stop><stop offset="85.55555555555554%" stop-color="#9a35d1" stop-opacity="1"></stop></linearGradient></defs><defs><linearGradient id="grad1_2" x1="43.8%" y1="100%" x2="100%" y2="0%"><stop offset="14.444444444444446%" stop-color="#7000a8" stop-opacity="1"></stop><stop offset="85.55555555555554%" stop-color="#9a35d1" stop-opacity="1"></stop></linearGradient></defs><defs><linearGradient id="grad1_3" x1="43.8%" y1="100%" x2="100%" y2="0%"><stop offset="14.444444444444446%" stop-color="#7000a8" stop-opacity="1"></stop><stop offset="85.55555555555554%" stop-color="#450080" stop-opacity="1"></stop></linearGradient></defs><defs><linearGradient id="grad1_4" x1="43.8%" y1="100%" x2="100%" y2="0%"><stop offset="14.444444444444446%" stop-color="#000000" stop-opacity="1"></stop><stop offset="85.55555555555554%" stop-color="#450080" stop-opacity="1"></stop></linearGradient></defs><defs><linearGradient id="grad2_0" x1="0%" y1="100%" x2="56.3%" y2="0%"><stop offset="14.444444444444446%" stop-color="#F28500" stop-opacity="1"></stop><stop offset="85.55555555555554%" stop-color="#F28500" stop-opacity="1"></stop></linearGradient></defs><defs><linearGradient id="grad2_1" x1="0%" y1="100%" x2="56.3%" y2="0%"><stop offset="14.444444444444446%" stop-color="#9a35d1" stop-opacity="1"></stop><stop offset="85.55555555555554%" stop-color="#F28500" stop-opacity="1"></stop></linearGradient></defs><defs><linearGradient id="grad2_2" x1="0%" y1="100%" x2="56.3%" y2="0%"><stop offset="14.444444444444446%" stop-color="#9a35d1" stop-opacity="1"></stop><stop offset="85.55555555555554%" stop-color="#7000a8" stop-opacity="1"></stop></linearGradient></defs><defs><linearGradient id="grad2_3" x1="0%" y1="100%" x2="56.3%" y2="0%"><stop offset="14.444444444444446%" stop-color="#450080" stop-opacity="1"></stop><stop offset="85.55555555555554%" stop-color="#7000a8" stop-opacity="1"></stop></linearGradient></defs><defs><linearGradient id="grad2_4" x1="0%" y1="100%" x2="56.3%" y2="0%"><stop offset="14.444444444444446%" stop-color="#450080" stop-opacity="1"></stop><stop offset="85.55555555555554%" stop-color="#000000" stop-opacity="1"></stop></linearGradient></defs><g transform="translate(960, 540)"><path d="M-351 0C-338.3 -43.8 -325.7 -87.6 -307.7 -127.4C-289.6 -167.2 -266.3 -203 -237.6 -237.6C-208.9 -272.2 -174.8 -305.6 -134.3 -324.3C-93.8 -343 -46.9 -347 0 -351L0 0Z" fill="#2f006d"></path><path d="M-280.8 0C-270.7 -35.1 -260.5 -70.1 -246.1 -101.9C-231.7 -133.8 -213 -162.4 -190.1 -190.1C-167.1 -217.7 -139.9 -244.5 -107.5 -259.4C-75.1 -274.4 -37.5 -277.6 0 -280.8L0 0Z" fill="#5b0094"></path><path d="M-210.6 0C-203 -26.3 -195.4 -52.6 -184.6 -76.5C-173.8 -100.3 -159.8 -121.8 -142.6 -142.6C-125.3 -163.3 -104.9 -183.3 -80.6 -194.6C-56.3 -205.8 -28.1 -208.2 0 -210.6L0 0Z" fill="#851dbc"></path><path d="M-140.4 0C-135.3 -17.5 -130.3 -35.1 -123.1 -51C-115.9 -66.9 -106.5 -81.2 -95 -95C-83.6 -108.9 -69.9 -122.2 -53.7 -129.7C-37.5 -137.2 -18.8 -138.8 0 -140.4L0 0Z" fill="#af4ae6"></path><path d="M-70.2 0C-67.7 -8.8 -65.1 -17.5 -61.5 -25.5C-57.9 -33.4 -53.3 -40.6 -47.5 -47.5C-41.8 -54.4 -35 -61.1 -26.9 -64.9C-18.8 -68.6 -9.4 -69.4 0 -70.2L0 0Z" fill="#F28500"></path></g><g transform="translate(0, 0)"><path d="M351 0C307.1 28 263.2 56 254.1 105.2C244.9 154.5 270.5 224.9 248.2 248.2C225.9 271.5 155.7 247.6 106.4 256.8C57 266.1 28.5 308.6 0 351L0 0Z" fill="#2f006d"></path><path d="M280.8 0C245.7 22.4 210.6 44.8 203.3 84.2C195.9 123.6 216.4 179.9 198.6 198.6C180.7 217.2 124.6 198.1 85.1 205.5C45.6 212.9 22.8 246.8 0 280.8L0 0Z" fill="#5b0094"></path><path d="M210.6 0C184.3 16.8 157.9 33.6 152.4 63.1C146.9 92.7 162.3 135 148.9 148.9C135.5 162.9 93.4 148.5 63.8 154.1C34.2 159.7 17.1 185.1 0 210.6L0 0Z" fill="#851dbc"></path><path d="M140.4 0C122.8 11.2 105.3 22.4 101.6 42.1C98 61.8 108.2 90 99.3 99.3C90.4 108.6 62.3 99 42.6 102.7C22.8 106.4 11.4 123.4 0 140.4L0 0Z" fill="#af4ae6"></path><path d="M70.2 0C61.4 5.6 52.6 11.2 50.8 21C49 30.9 54.1 45 49.6 49.6C45.2 54.3 31.1 49.5 21.3 51.4C11.4 53.2 5.7 61.7 0 70.2L0 0Z" fill="#F28500"></path></g></svg>