<svg id="visual" viewBox="0 0 960 540" width="960" height="540" xmlns="http://www.w3.org/2000/svg" xmlns:xlink="http://www.w3.org/1999/xlink" version="1.1"><rect x="0" y="0" width="960" height="540" fill="#000000"></rect><path d="M0 376L137 391L274 395L411 349L549 417L686 406L823 362L960 409L960 541L823 541L686 541L549 541L411 541L274 541L137 541L0 541Z" fill="#2f2038"></path><path d="M0 416L137 431L274 399L411 441L549 450L686 400L823 387L960 379L960 541L823 541L686 541L549 541L411 541L274 541L137 541L0 541Z" fill="#513065"></path><path d="M0 466L137 425L274 430L411 442L549 424L686 452L823 435L960 409L960 541L823 541L686 541L549 541L411 541L274 541L137 541L0 541Z" fill="#754095"></path><path d="M0 470L137 469L274 469L411 488L549 475L686 461L823 465L960 464L960 541L823 541L686 541L549 541L411 541L274 541L137 541L0 541Z" fill="#9c50c7"></path><path d="M0 498L137 477L274 510L411 494L549 507L686 482L823 501L960 508L960 541L823 541L686 541L549 541L411 541L274 541L137 541L0 541Z" fill="#c55ffc"></path></svg>